<?xml version="1.0" standalone="no"?><!DOCTYPE svg PUBLIC "-//W3C//DTD SVG 1.1//EN" "http://www.w3.org/Graphics/SVG/1.1/DTD/svg11.dtd"><svg t="1490426820524" class="icon" style="" viewBox="0 0 1024 1024" version="1.1" xmlns="http://www.w3.org/2000/svg" p-id="2979" xmlns:xlink="http://www.w3.org/1999/xlink" width="32" height="32"><defs><style type="text/css"></style></defs><path d="M788.928658 193.554274 237.564116 193.554274c-23.966854 0-43.395346 19.466354-43.395346 43.48028l0 550.134529c0 24.012903 19.428491 43.48028 43.395346 43.48028l551.364543 0c23.965831 0 43.396369-19.467377 43.396369-43.48028L832.325028 571.924811 832.325028 383.378597 832.325028 237.033531C832.325028 213.020628 812.89449 193.554274 788.928658 193.554274zM794.615171 383.378597l0 188.546214 0 177.50474c0 24.030299-19.478633 43.51098-43.51098 43.51098L275.388583 792.94053c-24.029276 0-43.51098-19.479657-43.51098-43.51098L231.877603 274.774087c0-24.030299 19.48068-43.51098 43.51098-43.51098l475.715609 0c24.031323 0 43.51098 19.48068 43.51098 43.51098L794.615171 383.378597z" p-id="2980" fill="#bfbfbf"></path><path d="M350.706989 362.825492m-37.708833 0a36.85 36.85 0 1 0 75.417667 0 36.85 36.85 0 1 0-75.417667 0Z" p-id="2981" fill="#bfbfbf"></path><path d="M350.706989 491.270886m-37.708833 0a36.85 36.85 0 1 0 75.417667 0 36.85 36.85 0 1 0-75.417667 0Z" p-id="2982" fill="#bfbfbf"></path><path d="M350.706989 628.442012m-37.708833 0a36.85 36.85 0 1 0 75.417667 0 36.85 36.85 0 1 0-75.417667 0Z" p-id="2983" fill="#bfbfbf"></path><path d="M704.285886 343.970052 462.633151 343.970052c-10.413164 0-18.854417 8.441253-18.854417 18.854417s8.441253 18.854417 18.854417 18.854417l241.652735 0c10.414187 0 18.85544-8.441253 18.85544-18.854417S714.700073 343.970052 704.285886 343.970052z" p-id="2984" fill="#bfbfbf"></path><path d="M704.285886 472.4134 462.633151 472.4134c-10.413164 0-18.854417 8.441253-18.854417 18.854417s8.441253 18.854417 18.854417 18.854417l241.652735 0c10.414187 0 18.85544-8.441253 18.85544-18.854417S714.700073 472.4134 704.285886 472.4134z" p-id="2985" fill="#bfbfbf"></path><path d="M704.285886 609.583502 462.633151 609.583502c-10.413164 0-18.854417 8.44023-18.854417 18.854417s8.441253 18.854417 18.854417 18.854417l241.652735 0c10.414187 0 18.85544-8.44023 18.85544-18.854417S714.700073 609.583502 704.285886 609.583502z" p-id="2986" fill="#bfbfbf"></path></svg>