<?xml version="1.0" standalone="no"?><!DOCTYPE svg PUBLIC "-//W3C//DTD SVG 1.1//EN" "http://www.w3.org/Graphics/SVG/1.1/DTD/svg11.dtd"><svg t="1490430591131" class="icon" style="" viewBox="0 0 1024 1024" version="1.1" xmlns="http://www.w3.org/2000/svg" p-id="4602" xmlns:xlink="http://www.w3.org/1999/xlink" width="32" height="32"><defs><style type="text/css"></style></defs><path d="M510.719844 88.156806c138.498354 0 251.184833 110.049418 251.184833 245.312078 0 24.089651-3.592828 47.89073-10.666944 70.756507-14.513552 31.652907-182.295859 373.388059-240.517889 491.946268C452.39753 777.424138 284.193621 434.83248 270.13544 404.146597c-7.040347-22.821775-10.599406-46.600341-10.599406-70.677713C259.536035 198.206224 372.210233 88.156806 510.719844 88.156806M510.719844 496.145917c78.652338 0 142.635581-64.006779 142.635581-142.66935s-63.983243-142.657071-142.635581-142.657071c-78.653361 0-142.635581 63.993476-142.635581 142.657071S432.066483 496.145917 510.719844 496.145917M510.719844 66.158792c-150.887522 0-273.181823 119.66952-273.181823 267.310092 0 27.113521 4.125971 53.228295 11.788487 77.863369l-0.13303 0 0.333598 0.611937c12.123109 27.370371 261.193791 534.10853 261.193791 534.10853s249.059426-506.759649 261.193791-534.163789l0.311085-0.555655-0.156566 0c7.68503-24.635073 11.833513-50.748824 11.833513-77.863369C783.90269 185.827289 661.563364 66.158792 510.719844 66.158792L510.719844 66.158792zM510.719844 474.135624c-66.641793 0-120.648824-53.995775-120.648824-120.659057 0-66.607 54.007031-120.670314 120.648824-120.670314s120.637568 54.063313 120.637568 120.670314C631.357412 420.139849 577.361637 474.135624 510.719844 474.135624L510.719844 474.135624z" p-id="4603" fill="#1296db"></path></svg>