<?xml version="1.0" standalone="no"?><!DOCTYPE svg PUBLIC "-//W3C//DTD SVG 1.1//EN" "http://www.w3.org/Graphics/SVG/1.1/DTD/svg11.dtd"><svg t="1490426713481" class="icon" style="" viewBox="0 0 1024 1024" version="1.1" xmlns="http://www.w3.org/2000/svg" p-id="1208" xmlns:xlink="http://www.w3.org/1999/xlink" width="32" height="32"><defs><style type="text/css"></style></defs><path d="M522.26 805.977c-119.952 6.503-225.484-65.708-271.489-164.157-50.558-108.175-41.025-214.985 31.162-310.305 68.815-90.875 164.47-126.976 277.749-113.446 56.231 6.718 105.806 29.805 149.025 66.485 23.45 19.915 22.926 28.814-3.071 43.731-22.59 12.969-45.292 25.734-67.762 38.908-62.13 36.396-124.643 72.162-186.047 109.757-32.882 20.119-39.46 52.222-21.082 85.525 19.884 36.018 58.43 44.404 99.27 20.791 121.358-70.18 242.307-141.060 364.048-210.582 20.144-11.502 22.356-23.203 13.405-42.693-31.49-68.574-77.871-124.899-140.016-167.036-137.326-93.105-283.85-108.022-433.898-37.297-149.691 70.561-231.003 194.467-244.519 357.766-11.201 135.382 40.311 250.002 138.028 344.331 136.242 131.516 363.933 152.207 520.427 46.479 40.748-27.522 40.748-27.522 15.484-69.554-27.318-45.439-54.425-53.886-101.849-31.15-44.873 21.502-91.386 35.477-138.86 32.437z" p-id="1209" fill="#8a8a8a"></path><path d="M934.183 613.593c-2.257-32.522-19.89-58.941-35.11-86.177-4.969-8.895-12.941-5.474-20.055-1.414-27.894 15.969-55.702 32.076-83.808 47.655-11.947 6.623-14.059 14.644-7.153 26.287 16.007 26.98 31.899 54.033 47.244 81.386 6.669 11.883 14.668 14.603 26.178 7.323 16.807-10.623 34.156-20.478 50.382-31.916 14.432-10.189 22.914-24.505 22.319-43.149z" p-id="1210" fill="#8a8a8a"></path></svg>