<?xml version="1.0" standalone="no"?><!DOCTYPE svg PUBLIC "-//W3C//DTD SVG 1.1//EN" "http://www.w3.org/Graphics/SVG/1.1/DTD/svg11.dtd"><svg t="1490426791011" class="icon" style="" viewBox="0 0 1024 1024" version="1.1" xmlns="http://www.w3.org/2000/svg" p-id="2209" xmlns:xlink="http://www.w3.org/1999/xlink" width="32" height="32"><defs><style type="text/css"></style></defs><path d="M512 932.977778C279.506489 932.977778 91.022222 744.516267 91.022222 512 91.022222 279.506489 279.506489 91.022222 512 91.022222S932.977778 279.506489 932.977778 512C932.977778 744.516267 744.493511 932.977778 512 932.977778zM512 136.533333C304.651378 136.533333 136.533333 304.651378 136.533333 512S304.651378 887.466667 512 887.466667C719.371378 887.466667 887.466667 719.348622 887.466667 512S719.371378 136.533333 512 136.533333zM663.711289 773.688889l-159.402667-137.284267C438.840889 632.354133 386.844444 578.491733 386.844444 512c0-21.868089 6.121244-42.120533 15.9744-60.0064l-38.7072-183.660089-7.600356-24.667022 163.134578 143.951644C585.136356 391.645867 637.155556 445.508267 637.155556 512c0 22.163911-6.235022 42.666667-16.338489 60.711822l37.751467 183.022933L663.711289 773.688889zM512 432.355556c-44.009244 0-79.644444 35.657956-79.644444 79.6672C432.355556 555.986489 467.990756 591.644444 512 591.644444s79.644444-35.657956 79.644444-79.621689C591.644444 468.013511 556.009244 432.355556 512 432.355556z" p-id="2210" fill="#8a8a8a"></path></svg>