<?xml version="1.0" standalone="no"?><!DOCTYPE svg PUBLIC "-//W3C//DTD SVG 1.1//EN" "http://www.w3.org/Graphics/SVG/1.1/DTD/svg11.dtd"><svg t="1490426848606" class="icon" style="" viewBox="0 0 1024 1024" version="1.1" xmlns="http://www.w3.org/2000/svg" p-id="3717" xmlns:xlink="http://www.w3.org/1999/xlink" width="32" height="32"><defs><style type="text/css"></style></defs><path d="M511.125585 559.823192c-141.129274 0-255.93195-114.835422-255.93195-255.930927 0-141.163043 114.802676-255.93195 255.93195-255.93195 141.129274 0 255.932973 114.768907 255.932973 255.93195C767.059582 444.988794 652.254859 559.823192 511.125585 559.823192zM511.125585 116.208699c-103.489002 0-187.682543 84.177168-187.682543 187.683567 0 103.471606 84.193541 187.683567 187.682543 187.683567 103.487979 0 187.683567-84.210937 187.683567-187.683567C698.810175 200.38689 614.613564 116.208699 511.125585 116.208699z" p-id="3718" fill="#8a8a8a"></path><path d="M959.372585 973.795575 62.878584 973.795575 107.183649 632.911814 271.123442 544.348756 304.448432 605.472881 170.533466 674.776294 140.391982 905.234059 881.860211 905.234059 851.717703 675.543773 717.804784 603.822288 751.128751 545.881668 915.069567 632.124891Z" p-id="3719" fill="#8a8a8a"></path></svg>