<?xml version="1.0" standalone="no"?><!DOCTYPE svg PUBLIC "-//W3C//DTD SVG 1.1//EN" "http://www.w3.org/Graphics/SVG/1.1/DTD/svg11.dtd"><svg t="1490577150207" class="icon" style="" viewBox="0 0 1025 1024" version="1.1" xmlns="http://www.w3.org/2000/svg" p-id="4470" xmlns:xlink="http://www.w3.org/1999/xlink" width="200.1953125" height="200"><defs><style type="text/css"></style></defs><path d="M512 0C229.217908 0 0 229.219077 0 512c0 282.782092 229.217908 512 512 512 282.783262 0 512-229.217908 512-512C1024.001169 229.219077 794.783262 0 512 0zM512 943.999781c-238.594212 0-432.00095-193.406738-432.00095-431.999781s193.406738-431.999781 432.00095-431.999781 431.999781 193.406738 431.999781 431.999781S750.595381 943.999781 512 943.999781zM265.149496 725.736483c11.369646 6.020944 22.577954 12.206732 33.615571 18.564381 17.058561-27.761811 33.615571-61.20903 49.671031-100.345163l-35.120222-14.048089C299.935352 665.697738 283.878723 697.641474 265.149496 725.736483zM664.024734 656.49797c26.089976 31.10665 47.163279 58.033713 63.21757 80.77885l31.6082-23.078335c-26.426681-32.445287-48.666761-58.535263-66.729592-78.271098L664.024734 656.49797zM472.364654 629.907612c20.736597 21.740867 39.465824 43.147368 56.193525 64.22184l30.103549-24.083774c-14.721499-17.726126-34.453827-37.795158-59.203997-60.207098L472.364654 629.907612zM602.311816 694.628664c-3.346008 15.052359-16.55701 22.579123-39.636515 22.579123l-105.361837 0c-23.079504 0-34.619841-10.202869-34.619841-30.605099l0-55.693144-38.130694 0 0 59.205166c0 41.474364 21.072133 62.214469 63.21757 62.214469l121.920016 0c38.798259 0 61.376213-14.549639 67.733862-43.650087 3.340162-13.713722 6.185789-29.601998 8.529865-47.664829-20.742443-8.361512-33.114021-13.378186-37.129932-15.052359C607.493335 665.362202 605.321119 681.583676 602.311816 694.628664zM274.683631 576.22184l3.009303 36.626043c184.466514-5.183857 320.352781-8.531034 407.654125-10.035685 13.211002 12.71179 26.004631 25.756778 38.383223 39.136133l30.103549-24.083774c-26.426681-25.085706-57.196626-52.178783-92.319187-81.2804l-26.591527 20.571752c6.186958 5.354548 12.372747 10.704419 18.564381 16.054291-40.976321 0.671072-82.454192 1.25563-124.428937 1.758349l0-40.389425 179.117811 0L708.176372 380.547018 529.058561 380.547018l0-34.619841 219.255876 0 0-32.11092-219.255876 0 0-42.145436-35.120222 0 0 42.145436L274.683631 313.816257l0 32.11092 219.255876 0L493.939507 380.547018 314.820527 380.547018 314.820527 546.619841l35.121392 0 0-12.040718L493.939507 534.579123l0 40.640785C422.356918 575.888642 349.269677 576.22184 274.683631 576.22184zM529.058561 409.647466l143.99642 0 0 34.118291L529.058561 443.765757 529.058561 409.647466zM529.058561 471.360384l143.99642 0 0 34.118291L529.058561 505.478675 529.058561 471.360384zM349.941919 409.647466 493.939507 409.647466l0 34.118291L349.941919 443.765757 349.941919 409.647466zM349.941919 505.478675l0-34.118291L493.939507 471.360384l0 34.118291L349.941919 505.478675z" p-id="4471"></path></svg>