<?xml version="1.0" standalone="no"?><!DOCTYPE svg PUBLIC "-//W3C//DTD SVG 1.1//EN" "http://www.w3.org/Graphics/SVG/1.1/DTD/svg11.dtd"><svg t="1490577388474" class="icon" style="" viewBox="0 0 1024 1024" version="1.1" xmlns="http://www.w3.org/2000/svg" p-id="8874" xmlns:xlink="http://www.w3.org/1999/xlink" width="200" height="200"><defs><style type="text/css"></style></defs><path d="M524.635273 301.036217c30.67258-6.288217 54.139038-32.386618 54.139038-64.788585 0-36.900422-29.770024-66.594721-66.774823-66.594721-36.989449 0-66.774823 29.694299-66.774823 66.594721 0 30.596855 20.75879 55.793724 48.722678 63.901379L331.501578 584.531943 150.115438 426.13233c16.246009-9.897418 27.076682-27.001981 27.076682-46.797839 0-30.596855-25.27157-54.891168-55.959499-54.891168-30.67258 0-55.94415 24.294312-55.94415 54.891168s25.27157 54.891168 55.94415 54.891168c8.123005 0 15.343453-1.789763 22.563902-4.482081l91.670839 369.088126 553.061185 0 103.388718-364.606045-179.580005 153.00065L524.635273 301.036217zM902.76431 324.443323c-30.686906 0-55.959499 24.294312-55.959499 54.891168s25.27157 54.891168 55.959499 54.891168c30.67258 0 55.94415-24.294312 55.94415-54.891168S933.43689 324.443323 902.76431 324.443323zM772.584412 820.162522 251.413542 820.162522c-8.81476 0-15.945157 7.160073-15.945157 16.005532l0 10.664897c0 8.831132 7.130398 15.991206 15.945157 15.991206l521.17087 0c8.800433 0 15.945157-7.160073 15.945157-15.991206L788.529569 836.167031C788.529569 827.322595 781.384845 820.162522 772.584412 820.162522z" p-id="8875"></path></svg>