<?xml version="1.0" standalone="no"?><!DOCTYPE svg PUBLIC "-//W3C//DTD SVG 1.1//EN" "http://www.w3.org/Graphics/SVG/1.1/DTD/svg11.dtd"><svg t="1490577080583" class="icon" style="" viewBox="0 0 1024 1024" version="1.1" xmlns="http://www.w3.org/2000/svg" p-id="3753" xmlns:xlink="http://www.w3.org/1999/xlink" width="200" height="200"><defs><style type="text/css"></style></defs><path d="M511.170099 63.467497c-246.11435 0-445.62836 199.511963-445.62836 445.626313 0 246.116397 199.515033 445.630407 445.62836 445.630407s445.62836-199.515033 445.62836-445.630407C956.798459 262.97946 757.284449 63.467497 511.170099 63.467497zM511.170099 871.167173c-199.967334 0-362.073362-162.103982-362.073362-362.073362 0-199.967334 162.106028-362.073362 362.073362-362.073362s362.073362 162.106028 362.073362 362.073362C873.243461 709.062168 711.137433 871.167173 511.170099 871.167173zM645.076878 308.897256l-129.4687 141.688-1.479701 0-129.4687-141.688-81.747839 0 152.030555 156.112524L330.285379 465.009779l0 57.706283 146.112776 0 0 79.529311L330.285379 602.245374l0 58.444087 146.112776 0 0 115.783003 72.501244 0L548.899398 660.689461l140.934846 0 0-58.444087L548.899398 602.245374l0-79.529311 140.934846 0 0-57.706283L568.874335 465.009779 722.386638 308.897256 645.076878 308.897256z" p-id="3754" fill="#ffffff"></path></svg>