<?xml version="1.0" standalone="no"?><!DOCTYPE svg PUBLIC "-//W3C//DTD SVG 1.1//EN" "http://www.w3.org/Graphics/SVG/1.1/DTD/svg11.dtd"><svg t="1490683247697" class="icon" style="" viewBox="0 0 1024 1024" version="1.1" xmlns="http://www.w3.org/2000/svg" p-id="2375" xmlns:xlink="http://www.w3.org/1999/xlink" width="200" height="200"><defs><style type="text/css"></style></defs><path d="M511.376807 65.484434c-246.425436 0-446.895213 200.469777-446.895213 446.86656 0 246.425436 200.469777 446.895213 446.895213 446.895213s446.895213-200.469777 446.895213-446.895213C958.27202 265.954211 757.802242 65.484434 511.376807 65.484434L511.376807 65.484434zM511.376807 912.125003c-220.446761 0-399.780149-179.327248-399.780149-399.774009 0-220.418109 179.333388-399.750473 399.780149-399.750473s399.778102 179.331341 399.778102 399.750473C911.154909 732.797755 731.823568 912.125003 511.376807 912.125003L511.376807 912.125003zM679.933757 480.21304 543.198559 480.21304 543.198559 343.794044c0-13.004175-18.410302-23.558555-31.414477-23.558555-13.004175 0-31.40936 10.55438-31.40936 23.558555l0 136.418996L342.819856 480.21304c-13.004175 0-23.557532 18.410302-23.557532 31.414477 0 13.004175 10.553357 31.40936 23.557532 31.40936L480.374722 543.036877l0 137.89972c0 13.004175 18.405185 23.557532 31.40936 23.557532 13.004175 0 31.414477-10.553357 31.414477-23.557532L543.198559 543.036877l136.736221 0c13.004175 0 23.557532-18.405185 23.557532-31.40936C703.491289 498.623341 692.966585 480.21304 679.933757 480.21304L679.933757 480.21304zM679.933757 480.21304" p-id="2376" fill="#1296db"></path></svg>