<?xml version="1.0" standalone="no"?><!DOCTYPE svg PUBLIC "-//W3C//DTD SVG 1.1//EN" "http://www.w3.org/Graphics/SVG/1.1/DTD/svg11.dtd"><svg t="1490576962042" class="icon" style="" viewBox="0 0 1024 1024" version="1.1" xmlns="http://www.w3.org/2000/svg" p-id="2597" xmlns:xlink="http://www.w3.org/1999/xlink" width="200" height="200"><defs><style type="text/css"></style></defs><path d="M383.99488 598.744064c-51.760128-38.802432-85.25312-100.646912-85.25312-170.314752 0-117.484544 95.240192-212.724736 212.724736-212.724736 117.48352 0 212.724736 95.240192 212.724736 212.724736 0 69.859328-33.677312 131.85024-85.679104 170.633216 96.67584 34.315264 175.424512 106.487808 218.413056 198.692864 64.652288-77.720576 103.539712-177.632256 103.539712-286.629888 0-247.694336-200.79616-448.489472-448.488448-448.489472-247.694336 0-448.490496 200.795136-448.490496 448.489472 0 108.162048 38.291456 207.38048 102.054912 284.841984C208.8448 704.33792 287.541248 632.711168 383.99488 598.744064z" p-id="2598"></path></svg>