<?xml version="1.0" standalone="no"?><!DOCTYPE svg PUBLIC "-//W3C//DTD SVG 1.1//EN" "http://www.w3.org/Graphics/SVG/1.1/DTD/svg11.dtd"><svg t="1490577331923" class="icon" style="" viewBox="0 0 1024 1024" version="1.1" xmlns="http://www.w3.org/2000/svg" p-id="7200" xmlns:xlink="http://www.w3.org/1999/xlink" width="200" height="200"><defs><style type="text/css"></style></defs><path d="M107.08992 580.73088c3.95264-3.36896 11.264-8.82688 21.9648-16.37376l17.09056-12.04224c14.39744-10.09664 24.75008-19.28192 31.04768-27.52512 9.59488-12.3904 14.39744-26.5728 14.39744-42.53696 0-20.81792-6.79936-37.55008-20.38784-50.18624-13.58848-12.6464-31.86688-18.97472-54.8352-18.97472-29.07136 0-49.3056 10.76224-60.69248 32.26624-5.9904 11.3152-9.33888 26.13248-10.0352 44.48256l41.472 0c0.49152-12.09344 2.08896-20.92032 4.78208-26.4704 4.68992-9.61536 13.52704-14.42816 26.49088-14.42816 9.48224 0 16.76288 3.0208 21.85216 9.07264 5.08928 6.05184 7.63904 13.62944 7.63904 22.76352 0 11.20256-4.44416 21.52448-13.32224 30.93504-5.79584 6.0416-18.51392 16.05632-38.18496 30.03392-22.65088 16.0768-37.02784 31.29344-43.10016 45.6704-6.28736 12.78976-9.63584 26.91072-10.0352 42.38336L191.8976 629.80096l0-37.33504L97.13664 592.46592C99.84 588.032 103.14752 584.11008 107.08992 580.73088zM158.65856 820.87936c5.19168-1.98656 10.1888-5.70368 14.97088-11.1616 7.58784-8.71424 11.38688-19.42528 11.38688-32.14336 0-17.92-6.35904-32.21504-19.05664-42.88512-12.71808-10.67008-29.44-15.99488-50.176-15.99488-11.17184 0-20.59264 1.3312-28.27264 4.02432-7.66976 2.68288-14.30528 6.5536-19.87584 11.61216-7.48544 7.1168-12.96384 14.8992-16.45568 23.33696-3.28704 9.60512-5.13024 19.79392-5.5296 30.50496l39.82336 0c-0.2048-10.63936 2.06848-19.10784 6.78912-25.45664 4.72064-6.33856 12.12416-9.51296 22.1696-9.51296 8.7552 0 15.5648 2.58048 20.38784 7.74144 4.83328 5.15072 7.24992 11.8272 7.24992 20.08064 0 12.68736-4.73088 21.12512-14.1824 25.27232-5.46816 2.48832-15.11424 3.82976-28.93824 4.03456l0 30.33088c14.12096 0 24.4736 1.35168 31.04768 4.01408 11.54048 4.77184 17.3056 14.24384 17.3056 28.416 0 10.73152-3.11296 18.92352-9.33888 24.61696-6.22592 5.70368-13.52704 8.5504-21.88288 8.5504-13.63968 0-23.04-5.21216-28.22144-15.616-2.78528-5.64224-4.18816-12.78976-4.18816-21.42208L41.74848 869.2224c0.69632 17.17248 4.18816 31.05792 10.46528 41.64608 11.95008 19.93728 33.30048 29.89056 64 29.89056 24.9344 0 43.73504-6.92224 56.46336-20.74624 12.70784-13.83424 19.06688-29.85984 19.06688-48.10752 0-17.34656-5.43744-31.03744-16.31232-41.0624C168.15104 824.19712 162.56 820.87936 158.65856 820.87936zM105.97376 311.71584l43.70432 0L149.67808 96.0512l-35.62496 0c0 1.88416-0.55296 4.75136-1.6384 8.61184-1.8944 6.44096-4.68992 11.61216-8.35584 15.47264-5.376 5.66272-12.35968 9.43104-20.91008 11.30496-5.376 1.19808-14.78656 2.08896-28.2112 2.68288l0 28.85632 51.03616 0L105.97376 311.71584zM942.67392 415.25248 360.79616 415.25248c-20.736 0-37.53984 16.7936-37.53984 37.50912l0 131.29728c0 20.71552 16.80384 37.50912 37.53984 37.50912l581.86752 0c20.736 0 37.56032-16.7936 37.56032-37.50912L980.224 452.7616C980.23424 432.04608 963.40992 415.25248 942.67392 415.25248zM942.67392 96.38912 360.79616 96.38912c-20.736 0-37.53984 16.7936-37.53984 37.51936l0 131.28704c0 20.71552 16.80384 37.51936 37.53984 37.51936l581.86752 0c20.736 0 37.56032-16.7936 37.56032-37.51936L980.224 133.90848C980.23424 113.18272 963.40992 96.38912 942.67392 96.38912zM942.67392 734.11584 360.79616 734.11584c-20.736 0-37.53984 16.78336-37.53984 37.49888l0 131.29728c0 20.71552 16.80384 37.51936 37.53984 37.51936l581.86752 0c20.736 0 37.56032-16.80384 37.56032-37.51936L980.224 771.62496C980.23424 750.8992 963.40992 734.11584 942.67392 734.11584z" p-id="7201"></path></svg>