<?xml version="1.0" standalone="no"?><!DOCTYPE svg PUBLIC "-//W3C//DTD SVG 1.1//EN" "http://www.w3.org/Graphics/SVG/1.1/DTD/svg11.dtd"><svg t="1490577419455" class="icon" style="" viewBox="0 0 1024 1024" version="1.1" xmlns="http://www.w3.org/2000/svg" p-id="9557" xmlns:xlink="http://www.w3.org/1999/xlink" width="200" height="200"><defs><style type="text/css"></style></defs><path d="M512.008186 1.928932c-281.265942 0-510.079254 228.813313-510.079254 510.062881 0 281.265942 228.813313 510.079254 510.079254 510.079254 281.249569 0 510.062881-228.813313 510.062881-510.079254C1022.071068 230.742245 793.257755 1.928932 512.008186 1.928932zM209.746048 879.477442 209.746048 879.477442c13.134135-50.989301 68.052932-146.747225 241.171782-143.455249l4.189416 0.082888 3.75758-1.862417c7.547907-3.75758 26.03598-19.418258 34.830273-83.658352l1.895163-14.646582-14.180977-4.056386c-0.481977-0.13303-48.545646-14.413268-121.646548-82.211397-0.249687-0.199545-25.686009-21.230534-40.698934-95.744621-17.240663-94.630241-5.104251-169.178097 35.112706-215.562521 32.801057-37.855166 85.037768-57.406454 147.848303-55.029314l14.131859-0.016373c62.061474-2.127454 114.397447 17.190521 147.199527 55.04671 40.216957 46.384423 52.369741 120.93228 35.17922 215.263715-15.196097 75.445296-36.475749 96.909144-36.725436 97.141434-71.755254 66.667376-124.722606 80.864726-125.171837 80.981383l-14.846126 3.674693 2.061962 15.162328c8.795317 64.240093 27.282367 79.900771 34.830273 83.658352l3.75758 1.862417 4.189416-0.082888c189.29425-4.089132 233.43661 114.301256 242.081501 147.950633l0 0C727.287251 949.06124 624.11445 988.022601 512.008186 988.022601 397.340587 988.022601 292.012703 947.264315 209.746048 879.477442zM838.019215 858.541621c-23.808242-77.775364-103.938234-156.684552-261.565251-156.684552-1.014096 0-2.01182 0-3.025916 0.016373-3.208065-4.971222-9.04398-16.857946-13.648858-42.128493 22.577205-8.878205 68.645426-31.505551 124.839263-83.708494 2.975774-2.610454 29.642111-28.046776 47.348378-115.994828 19.168572-105.154945 4.338818-189.527564-42.87653-243.992013-39.701211-45.802162-101.697193-69.64315-173.584454-66.766636l-12.834306 0.016373c-72.7847-2.826372-134.514623 20.948101-174.232207 66.750263-47.215348 54.464449-62.028729 138.838092-42.810015 244.291842 16.642029 82.644255 46.001707 110.408599 52.785204 115.861798 55.4458 51.405787 98.28856 74.03211 119.436206 83.10986-4.622274 25.569352-10.507308 37.556361-13.732769 42.543955-1.363044 0-2.709715 0-4.072759 0-190.793394 0-242.084571 105.97359-255.585049 155.243737C93.056396 770.303974 35.977399 647.688355 35.977399 511.991814c0-262.480087 213.551724-476.014414 476.030787-476.014414S988.022601 249.51275 988.022601 511.991814C988.022601 648.441509 930.310178 771.663948 838.019215 858.541621z" p-id="9558"></path></svg>