<?xml version="1.0" standalone="no"?><!DOCTYPE svg PUBLIC "-//W3C//DTD SVG 1.1//EN" "http://www.w3.org/Graphics/SVG/1.1/DTD/svg11.dtd"><svg t="1490577365222" class="icon" style="" viewBox="0 0 1024 1024" version="1.1" xmlns="http://www.w3.org/2000/svg" p-id="8193" xmlns:xlink="http://www.w3.org/1999/xlink" width="200" height="200"><defs><style type="text/css"></style></defs><path d="M879.933837 720.244858c-4.360308-1.731434-8.581446-10.847046-9.970072-16.774035L813.911144 328.316537c-0.438998-2.940982-1.533936-5.614881-3.086291-7.931646-2.443655-12.166087-13.208836-21.358447-26.084075-21.358447L640.948861 299.026444l0-58.848293c0-77.591169-63.125713-140.716882-140.716882-140.716882s-140.716882 63.124689-140.716882 140.716882l0 58.848293L215.724203 299.026444c-14.670118 0-26.605961 11.935843-26.605961 26.605961 0 0.610914 0.035816 1.213641 0.091074 1.810229-0.057305 0.291642-0.130983 0.576121-0.176009 0.87288l-72.65474 486.279199c-0.14224 0.951675-0.212848 1.911536-0.212848 2.873444 0 57.345056 46.654576 103.999632 103.999632 103.999632l562.613748 0c1.319042 0 2.605338-0.134053 3.850701-0.384763l21.026896 0c41.257659 0 74.824149-33.56649 74.824149-74.824149 0-41.258683-33.56649-74.825173-74.824149-74.825173L245.730611 771.433704c-10.737552 0-19.442818 8.705266-19.442818 19.442818s8.705266 19.442818 19.442818 19.442818l561.927109 0c19.816325 0 35.938514 16.122189 35.938514 35.939537 0 19.816325-16.122189 35.938514-35.938514 35.938514L245.730611 882.19739c-1.319042 0-2.605338 0.134053-3.850701 0.384763l-21.713534 0c-35.452443 0-64.379263-28.478612-65.100694-63.762209l71.852468-480.907864 132.597971 0L359.51612 416.007739c-12.503778 6.885827-20.998243 20.191878-20.998243 35.447327 0 22.298865 18.142196 40.441061 40.441061 40.441061s40.441061-18.142196 40.441061-40.441061c0-15.255449-8.493441-28.561499-20.998243-35.447327l0-78.095659 203.66147 0 0 78.354556c-12.256138 6.955412-20.547988 20.1182-20.547988 35.18843 0 22.298865 18.142196 40.441061 40.441061 40.441061s40.441061-18.142196 40.441061-40.441061c0-15.437597-8.698103-28.876678-21.447475-35.688827l0-77.853136L776.028349 337.913103l55.577806 371.977943c0.049119 0.327458 0.106424 0.654916 0.171915 0.978281 0.721431 3.571339 7.80271 35.1915 33.803897 45.515636 2.355651 0.935302 4.78191 1.378393 7.170307 1.378393 7.734148 0 15.047718-4.646833 18.075681-12.271488C894.79122 735.51054 889.913119 724.2071 879.933837 720.244858zM378.958938 461.195917c-5.371334 0-9.741875-4.370541-9.741875-9.741875s4.370541-9.740852 9.741875-9.740852 9.741875 4.369517 9.741875 9.740852S384.330272 461.195917 378.958938 461.195917zM621.956298 461.195917c-5.371334 0-9.741875-4.370541-9.741875-9.741875s4.370541-9.740852 9.741875-9.740852 9.741875 4.369517 9.741875 9.740852S627.327632 461.195917 621.956298 461.195917zM398.401756 299.026444l0-58.848293c0-56.149834 45.681412-101.831246 101.831246-101.831246s101.831246 45.681412 101.831246 101.831246l0 58.848293L398.401756 299.026444z" p-id="8194"></path></svg>