<?xml version="1.0" standalone="no"?><!DOCTYPE svg PUBLIC "-//W3C//DTD SVG 1.1//EN" "http://www.w3.org/Graphics/SVG/1.1/DTD/svg11.dtd"><svg t="1490577456349" class="icon" style="" viewBox="0 0 1024 1024" version="1.1" xmlns="http://www.w3.org/2000/svg" p-id="10237" xmlns:xlink="http://www.w3.org/1999/xlink" width="200" height="200"><defs><style type="text/css"></style></defs><path d="M614.4 698.88c-33.28 15.36-64 25.6-99.84 23.04-84.48 5.12-161.28-46.08-194.56-117.76-35.84-76.8-28.16-153.6 23.04-222.72 48.64-64 117.76-89.6 197.12-81.92 40.96 5.12 76.8 20.48 107.52 48.64 17.92 15.36 15.36 20.48-2.56 30.72-15.36 10.24-33.28 17.92-48.64 28.16-43.52 25.6-89.6 51.2-133.12 79.36-23.04 15.36-28.16 38.4-15.36 61.44 15.36 25.6 40.96 30.72 71.68 15.36 87.04-51.2 174.08-99.84 261.12-151.04 15.36-7.68 15.36-15.36 10.24-30.72-23.04-48.64-56.32-87.04-99.84-117.76-97.28-66.56-202.24-76.8-309.76-25.6-107.52 51.2-163.84 138.24-174.08 256-7.68 97.28 28.16 179.2 97.28 245.76 97.28 94.72 261.12 107.52 371.2 33.28 28.16-20.48 28.16-20.48 10.24-48.64-17.92-35.84-38.4-40.96-71.68-25.6z" fill="#1B9DFF" p-id="10238"></path><path d="M770.56 522.24c-20.48 10.24-40.96 23.04-58.88 33.28-7.68 5.12-10.24 10.24-5.12 17.92 10.24 20.48 23.04 38.4 33.28 58.88 5.12 7.68 10.24 10.24 17.92 5.12 12.8-7.68 25.6-15.36 35.84-23.04 10.24-7.68 15.36-17.92 15.36-30.72-2.56-23.04-15.36-40.96-25.6-61.44-2.56-5.12-7.68-2.56-12.8 0z" fill="#1B9DFF" p-id="10239"></path><path d="M512 0C230.4 0 0 230.4 0 512s230.4 512 512 512 512-230.4 512-512S793.6 0 512 0z m0 998.4C243.2 998.4 25.6 780.8 25.6 512S243.2 25.6 512 25.6s486.4 217.6 486.4 486.4-217.6 486.4-486.4 486.4z" fill="#1B9DFF" p-id="10240"></path></svg>